<svg xmlns="http://www.w3.org/2000/svg" viewBox="0 0 512 512"><circle cx="255.998" cy="255.997" r="246.811" fill="#f4bd64"/><g fill="#666"><path d="M256 512C114.842 512 .001 397.159.001 255.999S114.842 0 256 0s255.999 114.841 255.999 255.999S397.16 512 256 512zm0-493.629c-131.029 0-237.628 106.6-237.628 237.628S124.972 493.628 256 493.628 493.628 387.028 493.628 256 387.03 18.371 256 18.371z"/><path d="M355.098 427.67c-63.542 36.691-138.95 34.191-198.249.021l56.695-98.195c12.486 7.225 26.987 11.362 42.456 11.362 15.458 0 29.949-4.127 42.424-11.341l56.674 98.153zM213.544 182.513c-25.339 14.67-42.392 42.088-42.392 73.486H57.761c0-73.371 39.851-137.427 99.088-171.693l56.695 98.207zM454.239 255.999H340.848c0-31.409-17.064-58.837-42.424-73.507l56.674-98.164c63.531 36.68 99.088 103.236 99.141 171.671z"/><circle cx="255.998" cy="255.997" r="43.818"/></g></svg>